<svg width="256" height="192" viewBox="0 0 256 192" fill="none" xmlns="http://www.w3.org/2000/svg">
<path d="M243.335 150.194C243.731 161.927 236.532 173.013 225.333 176.915C220.436 178.62 215.531 178.459 210.457 178.459H137.349C133.64 178.459 129.923 178.499 126.206 178.459C120.012 178.467 113.934 176.774 108.636 173.563C103.338 170.353 99.0232 165.749 96.1635 160.254C93.3038 154.759 92.0085 148.583 92.4191 142.402C92.8297 136.221 94.9303 130.272 98.4918 125.203C107 112.816 122.732 108.235 136.84 112.566C139.547 113.374 142.189 111.968 143.684 109.778C152.79 96.4621 169.394 89.2385 185.352 92.3655C192.64 93.7918 199.416 97.137 204.979 102.056C210.543 106.974 214.693 113.289 217.002 120.347C217.152 121.437 217.649 122.45 218.418 123.237C219.188 124.024 220.19 124.543 221.276 124.718C233.405 127.401 242.907 137.476 243.335 150.194Z" fill="white"/>
<path d="M237.284 118.376C240.887 120.7 244.093 123.589 246.778 126.933C245.844 128.899 244.792 130.807 243.627 132.645C241.26 129.191 238.26 126.217 234.787 123.878C235.748 122.106 236.583 120.267 237.284 118.376V118.376Z" fill="#231815"/>
<path d="M205.626 61.7105C223.774 65.6131 238.399 80.6663 239.934 99.5332C240.458 105.93 239.564 112.364 237.316 118.376C234.281 116.412 230.988 114.881 227.531 113.827C220.784 96.8587 205.788 83.5994 187.486 80.4724C177.97 78.8198 168.186 79.7469 159.15 83.1573C150.113 86.5676 142.156 92.3367 136.105 99.8645C128.92 98.3268 121.473 98.5112 114.372 100.403C107.272 102.294 100.72 105.84 95.2523 110.748C90.3719 115.227 86.5168 120.708 83.9508 126.814C81.3848 132.921 80.1684 139.51 80.385 146.131C75.3511 146.131 70.3253 146.179 65.2995 146.131C51.5149 146.091 38.3003 140.625 28.5144 130.916C18.7285 121.208 13.1582 108.037 13.0085 94.2532C12.8587 80.4693 18.1416 67.1806 27.7143 57.2618C37.2869 47.3429 50.3797 41.5915 64.1602 41.2518C70.1159 41.1699 76.0455 42.054 81.7182 43.8697C84.4089 44.6777 87.0753 43.2718 88.562 41.0821C102.532 20.4779 128.09 9.4244 152.677 14.1916C163.902 16.3742 174.336 21.5248 182.895 29.1073C191.454 36.6899 197.824 46.4274 201.344 57.3068C201.483 58.4061 201.976 59.4302 202.749 60.2245C203.521 61.0189 204.531 61.5405 205.626 61.7105V61.7105Z" fill="white"/>
<path d="M237.284 118.376C236.582 120.267 235.748 122.106 234.787 123.879C232.919 122.618 230.93 121.549 228.848 120.687C229.164 119.563 229.124 118.37 228.735 117.269C228.363 116.106 227.951 114.958 227.499 113.827C230.956 114.882 234.249 116.413 237.284 118.376V118.376Z" fill="#231815"/>
<path d="M228.735 117.269C229.125 118.369 229.164 119.563 228.848 120.687C226.926 119.892 224.932 119.286 222.893 118.877C222.306 116.984 221.599 115.129 220.776 113.326C221.956 112.84 223.26 112.738 224.501 113.035C225.519 113.261 226.513 113.52 227.499 113.843C227.951 114.963 228.363 116.105 228.735 117.269Z" fill="#231815"/>
<path d="M222.893 118.877C224.932 119.286 226.926 119.892 228.848 120.687C227.402 125.494 219.031 126.618 217.051 120.493L217.003 120.347C216.799 118.928 217.056 117.48 217.735 116.216C218.414 114.953 219.48 113.94 220.776 113.326C221.599 115.13 222.306 116.984 222.893 118.877Z" fill="#231815"/>
<path d="M217.051 120.492C219.03 126.617 227.401 125.494 228.847 120.686C230.929 121.548 232.919 122.618 234.786 123.878C238.251 126.219 241.242 129.193 243.602 132.645C244.767 130.806 245.819 128.899 246.753 126.932C252.082 133.546 255.127 141.707 255.431 150.195C255.988 167.066 245.218 182.41 229.526 188.244C223.062 190.668 216.348 190.579 209.568 190.579H130.036C121.35 190.579 113.068 189.48 105.166 185.497C99.7416 182.696 94.928 178.845 91.0052 174.168C87.0824 169.49 84.1286 164.08 82.3156 158.251H88.6826C87.2727 154.358 86.482 150.268 86.3394 146.131C86.3394 145.638 86.3394 145.145 86.3394 144.652C86.3394 134.078 90.5397 123.938 98.0162 116.462C105.493 108.985 115.633 104.785 126.206 104.785C130.378 104.795 134.524 105.449 138.496 106.724C143.16 99.7062 149.616 94.0639 157.195 90.3827C164.774 86.7014 173.201 85.1153 181.6 85.7888C189.999 86.4624 198.064 89.371 204.96 94.2131C211.856 99.0551 217.331 105.654 220.816 113.325C219.519 113.939 218.454 114.952 217.775 116.216C217.095 117.479 216.839 118.927 217.042 120.347C214.734 113.289 210.583 106.975 205.02 102.056C199.456 97.1372 192.681 93.7921 185.393 92.3658C169.435 89.2388 152.83 96.4624 143.724 109.778C142.229 111.968 139.587 113.39 136.88 112.566C122.797 108.267 107.041 112.816 98.5322 125.203C94.9708 130.272 92.8701 136.221 92.4595 142.403C92.049 148.584 93.3442 154.759 96.204 160.254C99.0637 165.749 103.378 170.353 108.676 173.564C113.974 176.774 120.052 178.467 126.247 178.459C129.964 178.499 133.68 178.459 137.389 178.459H210.473C215.548 178.459 220.452 178.62 225.349 176.916C236.548 173.013 243.747 161.927 243.351 150.195C242.923 137.477 233.421 127.401 221.293 124.718C220.206 124.544 219.204 124.024 218.435 123.237C217.665 122.451 217.169 121.437 217.018 120.347L217.051 120.492Z" fill="#231815"/>
<path d="M213.043 54.2609C215.419 61.7188 203.719 64.8861 201.36 57.4929C201.36 57.4364 201.319 57.3798 201.303 57.3232C200.77 53.5418 203.865 48.9766 208.818 50.0512C209.828 50.2694 210.838 50.5199 211.84 50.7946C212.268 51.9258 212.672 53.0812 213.043 54.2609Z" fill="#231815"/>
<path d="M205.626 61.7106C204.53 61.5422 203.518 61.0214 202.744 60.2269C201.97 59.4324 201.475 58.4074 201.335 57.307C201.335 57.3636 201.376 57.4202 201.392 57.4767C203.751 64.8861 215.451 61.7187 213.076 54.2447C212.704 53.065 212.268 51.9096 211.872 50.7542C215.958 51.8694 219.905 53.4443 223.636 55.4486C242.737 65.7587 254.34 87.5182 251.916 109.124C251.23 115.294 249.506 121.304 246.818 126.9C244.133 123.557 240.927 120.668 237.324 118.343C239.572 112.332 240.466 105.898 239.942 99.5008C238.366 80.6663 223.741 65.6133 205.626 61.7106Z" fill="#231815"/>
<path d="M140.063 100.874C138.738 100.47 137.405 100.13 136.072 99.8396C142.123 92.3119 150.08 86.5428 159.116 83.1325C168.152 79.7221 177.937 78.795 187.452 80.4476C205.754 83.5746 220.75 96.8338 227.497 113.802C226.511 113.495 225.517 113.236 224.499 112.994C223.258 112.697 221.955 112.798 220.774 113.285C217.289 105.613 211.815 99.0145 204.919 94.1725C198.023 89.3305 189.957 86.4218 181.558 85.7483C173.159 85.0747 164.733 86.6609 157.154 90.3421C149.575 94.0233 143.119 99.6655 138.455 106.683C136.644 106.094 134.791 105.64 132.912 105.326L133.22 103.621L140.063 100.874Z" fill="#231815"/>
<path d="M140.064 100.875L133.221 103.662C134.126 102.337 135.076 101.063 136.073 99.8403C137.406 100.131 138.739 100.471 140.064 100.875Z" fill="#231815"/>
<path d="M88.6833 158.251H82.3162C81.6615 156.159 81.1699 154.019 80.8457 151.852C80.5622 149.957 80.3949 148.046 80.3447 146.131H86.3401C86.4827 150.269 87.2733 154.358 88.6833 158.251Z" fill="#231815"/>
<path d="M84.9012 32.1858L78.0575 34.9654C78.9571 33.6402 79.8917 32.3421 80.8613 31.0708C82.2187 31.394 83.56 31.7657 84.9012 32.1858Z" fill="#231815"/>
<path d="M201.303 57.3069C197.785 46.426 191.415 36.6868 182.856 29.1027C174.297 21.5187 163.862 16.3669 152.637 14.1836C128.049 9.4164 102.492 20.4699 88.5217 41.0741C87.035 43.2638 84.3685 44.702 81.6779 43.8617C76.0051 42.046 70.0756 41.1619 64.1199 41.2438C50.3394 41.5835 37.2466 47.3349 27.6739 57.2537C18.1013 67.1726 12.8184 80.4613 12.9681 94.2452C13.1178 108.029 18.6882 121.2 28.474 130.908C38.2599 140.617 51.4745 146.083 65.2592 146.123C70.285 146.171 75.3108 146.123 80.3447 146.123C80.3949 148.038 80.5622 149.949 80.8456 151.844C81.1698 154.012 81.6615 156.151 82.3162 158.243H71.5697C59.9991 158.243 48.9455 157.144 38.1991 152.28C19.0655 143.618 4.82034 125.01 1.58831 104.236C-1.7326 82.9126 5.47482 60.8541 21.5137 46.1968C29.4153 39.0151 38.9572 33.8801 49.3038 31.2417C59.6503 28.6033 70.486 28.5419 80.8618 31.0629C79.8922 32.3341 78.9576 33.6324 78.058 34.9575L84.9018 32.1779C83.5605 31.7578 82.2192 31.3699 80.8618 31.0629C91.1556 17.3354 105.837 7.54412 122.467 3.31658C139.096 -0.910947 156.672 0.679879 172.272 7.82463C190.726 16.0663 204.867 31.9679 211.864 50.7621C210.862 50.4874 209.852 50.2369 208.842 50.0187C203.865 48.9279 200.778 53.5255 201.303 57.3069Z" fill="#231815"/>
<path d="M80.3845 146.13C80.1654 139.505 81.3813 132.911 83.9488 126.799C86.5163 120.688 90.3748 115.204 95.2598 110.723C100.722 105.819 107.267 102.276 114.36 100.383C121.452 98.4906 128.892 98.3014 136.072 99.8315C135.081 101.049 134.13 102.323 133.22 103.653L132.913 105.358C130.685 104.967 128.427 104.773 126.166 104.776C115.592 104.776 105.452 108.977 97.9757 116.453C90.4993 123.93 86.2991 134.07 86.2991 144.643C86.2991 145.136 86.2991 145.629 86.2991 146.122H80.3845V146.13Z" fill="#231815"/>
<path d="M80.8612 31.0708C70.4855 28.5498 59.6499 28.6112 49.3034 31.2496C38.9569 33.888 29.4151 39.0229 21.5136 46.2046C5.47478 60.8617 -1.73258 82.9201 1.5883 104.243C4.8203 125.017 19.0653 143.625 38.1988 152.287C48.929 157.135 60.0148 158.25 71.5692 158.25H82.3156" stroke="#231815" stroke-miterlimit="10"/>
<path d="M80.8613 31.0708C82.2187 31.394 83.56 31.7657 84.9012 32.1858L78.0575 34.9654C78.9571 33.6402 79.8917 32.3421 80.8613 31.0708Z" stroke="#231815" stroke-miterlimit="10"/>
<path d="M211.838 50.7698C204.865 31.9757 190.725 16.0743 172.246 7.83267C156.649 0.694243 139.079 -0.893177 122.455 3.3341C105.831 7.56138 91.1538 17.3489 80.8612 31.0707" stroke="#231815" stroke-miterlimit="10"/>
<path d="M80.385 146.131C75.3511 146.131 70.3253 146.179 65.2995 146.131C51.5149 146.091 38.3003 140.625 28.5144 130.916C18.7285 121.208 13.1582 108.037 13.0085 94.2532C12.8587 80.4693 18.1416 67.1806 27.7143 57.2618C37.2869 47.3429 50.3797 41.5915 64.1602 41.2518C70.1159 41.1699 76.0455 42.054 81.7182 43.8697C84.4089 44.6777 87.0753 43.2718 88.562 41.0821C102.532 20.4779 128.09 9.4244 152.677 14.1916C163.902 16.3742 174.336 21.5248 182.895 29.1073C191.454 36.6899 197.824 46.4274 201.344 57.3068" stroke="#231815" stroke-miterlimit="10"/>
<path d="M201.303 57.3069C201.443 58.4073 201.937 59.4322 202.711 60.2267C203.485 61.0212 204.497 61.5421 205.594 61.7105C223.741 65.6131 238.366 80.6662 239.901 99.533C240.425 105.93 239.531 112.364 237.283 118.376" stroke="#231815" stroke-miterlimit="10"/>
<path d="M246.778 126.932C249.466 121.336 251.19 115.327 251.876 109.156C254.3 87.5504 242.705 65.7909 223.596 55.4809C219.865 53.4765 215.918 51.9017 211.832 50.7864" stroke="#231815" stroke-miterlimit="10"/>
<path d="M201.303 57.307C201.303 57.3636 201.343 57.4201 201.36 57.4767C203.719 64.8861 215.419 61.7187 213.043 54.2447C212.672 53.065 212.235 51.9096 211.839 50.7541C210.838 50.4794 209.828 50.2289 208.818 50.0108C203.864 48.9281 200.778 53.5256 201.303 57.307Z" stroke="#231815" stroke-miterlimit="10"/>
<path d="M217.002 120.347L217.051 120.492C219.03 126.617 227.401 125.494 228.847 120.686C229.163 119.563 229.124 118.369 228.734 117.268C228.363 116.105 227.951 114.957 227.498 113.826C220.751 96.8581 205.755 83.5988 187.453 80.4718C177.938 78.8192 168.153 79.7463 159.117 83.1567C150.081 86.567 142.123 92.3361 136.072 99.8639C135.081 101.081 134.13 102.355 133.22 103.686L140.064 100.898C138.739 100.494 137.405 100.155 136.072 99.8639C128.887 98.3262 121.44 98.5106 114.339 100.402C107.239 102.294 100.687 105.839 95.2194 110.748C90.3449 115.23 86.4958 120.711 83.9355 126.818C81.3751 132.925 80.1638 139.512 80.3844 146.13C80.4346 148.046 80.6019 149.956 80.8854 151.851C81.2096 154.019 81.7012 156.158 82.356 158.25C84.1662 164.073 87.1146 169.479 91.0302 174.153C94.9458 178.827 99.7507 182.677 105.166 185.48C113.06 189.464 121.326 190.563 130.036 190.563H209.593C216.372 190.563 223.062 190.643 229.55 188.227C245.242 182.394 256.013 167.05 255.455 150.178C255.151 141.691 252.106 133.529 246.777 126.916C244.092 123.573 240.886 120.684 237.283 118.359C234.249 116.396 230.955 114.865 227.498 113.81C226.512 113.503 225.518 113.244 224.5 113.002C223.259 112.705 221.956 112.807 220.775 113.293C219.479 113.907 218.413 114.92 217.734 116.183C217.055 117.447 216.799 118.895 217.002 120.315" stroke="#231815" stroke-miterlimit="10"/>
<path d="M217.002 120.347C217.152 121.437 217.649 122.45 218.418 123.237C219.188 124.024 220.19 124.543 221.276 124.718C233.396 127.401 242.907 137.476 243.335 150.194C243.731 161.927 236.532 173.013 225.333 176.915C220.436 178.62 215.531 178.459 210.457 178.459H137.349C133.64 178.459 129.923 178.499 126.206 178.459C120.012 178.467 113.934 176.774 108.636 173.563C103.338 170.353 99.0232 165.749 96.1635 160.254C93.3038 154.759 92.0085 148.583 92.4191 142.402C92.8297 136.221 94.9303 130.272 98.4918 125.203C107 112.816 122.732 108.235 136.84 112.566C139.547 113.374 142.189 111.968 143.684 109.778C152.79 96.4621 169.394 89.2385 185.352 92.3655C192.64 93.7918 199.416 97.137 204.979 102.056C210.543 106.974 214.693 113.289 217.002 120.347V120.347Z" stroke="#231815" stroke-miterlimit="10"/>
</svg>
