<svg width="259" height="190" viewBox="0 0 259 190" fill="none" xmlns="http://www.w3.org/2000/svg">
<path d="M201.792 155.186C214.106 155.19 225.982 150.621 235.118 142.363C244.253 134.106 249.996 122.75 251.233 110.499C252.469 98.2466 249.111 85.9722 241.809 76.0563C234.508 66.1404 223.784 59.2898 211.717 56.8335C207.76 44.0466 200.257 32.6444 190.08 23.9508C179.902 15.2572 167.467 9.62879 154.219 7.71911C140.971 5.80942 127.453 7.69678 115.234 13.1621C103.016 18.6273 92.5981 27.4463 85.1908 38.5951C76.978 35.939 68.2871 35.094 59.7163 36.1183C51.1456 37.1427 42.8987 40.012 35.543 44.5287C28.1874 49.0455 21.8979 55.1025 17.1073 62.2828C12.3167 69.4631 9.13888 77.5962 7.79251 86.1222C6.44614 94.6483 6.96323 103.365 9.30817 111.672C11.6531 119.979 15.7702 127.679 21.3761 134.243C26.982 140.806 33.9435 146.077 41.7816 149.693C49.6196 153.308 58.148 155.182 66.7797 155.186" fill="#DCDDDD"/>
<path d="M201.792 162.424C215.68 162.278 229.046 157.109 239.419 147.874C249.793 138.638 256.473 125.96 258.225 112.182C261.777 83.3847 241.906 56.056 213.627 49.9221L218.657 54.9521C209.951 27.7001 186.817 6.17883 158.365 1.19687C143.276 -1.45827 127.741 0.325956 113.646 6.33277C99.552 12.3396 87.5055 22.3104 78.9706 35.0338L87.1011 31.7221C56.9598 22.4206 23.4108 35.341 8.13852 63.1785C-6.41378 89.7202 -1.09585 124.008 21.251 144.57C33.6875 155.957 49.9081 162.323 66.7701 162.434C76.0429 162.539 76.0429 148.141 66.7701 148.035C43.2522 147.776 22.2685 132.1 16.0482 109.254C13.0844 98.038 13.8823 86.1589 18.3195 75.4396C22.7567 64.7202 30.5882 55.7527 40.6124 49.9125C53.6481 42.3964 68.9683 41.1869 83.2614 45.6025C86.4675 46.5624 89.6257 44.8922 91.3919 42.2908C105.445 21.6142 131.152 10.4792 155.85 15.3172C167.145 17.5291 177.639 22.729 186.241 30.3752C194.843 38.0215 201.237 47.8344 204.758 58.7917C205.092 59.9922 205.731 61.0861 206.612 61.9673C207.493 62.8485 208.587 63.4872 209.788 63.8217C231.415 68.5157 246.744 88.5395 243.97 110.857C241.34 132.062 222.852 147.728 201.734 148.006C192.48 148.131 192.452 162.53 201.734 162.405L201.792 162.424Z" fill="#231815"/>
<path d="M91.8911 162.424H177.583C186.846 162.424 186.865 148.025 177.583 148.025H91.8911C82.6279 148.025 82.6087 162.424 91.8911 162.424Z" fill="#231815"/>
<path d="M184.168 120.86H77.2428C67.9796 120.86 67.9604 135.258 77.2428 135.258H184.168C193.431 135.258 193.45 120.86 184.168 120.86Z" fill="#231815"/>
<path d="M205.084 175.181H108.92C99.6568 175.181 99.6376 189.58 108.92 189.58H205.084C214.347 189.58 214.367 175.181 205.084 175.181Z" fill="#231815"/>
</svg>
