<svg width="255" height="190" viewBox="0 0 255 190" fill="none" xmlns="http://www.w3.org/2000/svg">
<path d="M198.44 152.413C210.501 152.417 222.134 147.93 231.082 139.822C240.029 131.715 245.654 120.565 246.865 108.535C248.076 96.505 244.787 84.453 237.636 74.7168C230.484 64.9805 219.98 58.2541 208.162 55.8423C204.286 43.2871 196.938 32.0916 186.969 23.5555C177.001 15.0194 164.821 9.49306 151.846 7.61798C138.87 5.7429 125.629 7.59605 113.662 12.9623C101.694 18.3285 91.4909 26.9877 84.2359 37.9344C76.1898 35.3165 67.6731 34.4785 59.2727 35.4782C50.8724 36.478 42.7881 39.2916 35.5771 43.7253C28.366 48.159 22.1995 54.1073 17.5027 61.1604C12.8058 68.2134 9.69015 76.2035 8.37046 84.58C7.05077 92.9565 7.5584 101.52 9.85837 109.681C12.1583 117.842 16.196 125.406 21.693 131.852C27.1901 138.297 34.0158 143.472 41.6999 147.018C49.384 150.564 57.7438 152.399 66.2031 152.394" fill="white"/>
<path d="M198.44 159.482C212.043 159.338 225.134 154.263 235.295 145.195C245.455 136.127 251.998 123.679 253.714 110.15C257.192 81.8747 237.731 55.0411 210.033 49.0184L214.959 53.9572C206.432 27.1991 183.773 6.06785 155.906 1.17618C141.128 -1.43182 125.913 0.318653 112.108 6.2149C98.3036 12.1112 86.5042 21.8994 78.1435 34.3905L86.1068 31.1389C56.585 22.0058 23.7255 34.6922 8.76715 62.0252C-5.48607 88.0859 -0.277434 121.753 21.6101 141.941C33.791 153.122 49.6783 159.373 66.1937 159.482C75.2759 159.585 75.2759 145.448 66.1937 145.344C43.1592 145.089 22.6067 129.698 16.5143 107.266C13.6114 96.2529 14.3929 84.5891 18.7389 74.064C23.0849 63.539 30.7554 54.7339 40.5736 48.9996C53.3414 41.6197 68.3467 40.4321 82.3461 44.7677C85.4863 45.7102 88.5795 44.0702 90.3095 41.516C104.074 21.2141 129.252 10.2809 153.443 15.0312C164.505 17.203 174.784 22.3087 183.209 29.8164C191.634 37.3241 197.897 46.9591 201.345 57.7179C201.673 58.8966 202.299 59.9707 203.162 60.8359C204.025 61.7011 205.096 62.3283 206.272 62.6567C227.454 67.2656 242.469 86.9265 239.752 108.84C237.176 129.66 219.068 145.042 198.384 145.316C189.32 145.438 189.292 159.576 198.384 159.453L198.44 159.482Z" fill="#231815"/>
<path d="M99.3729 140.207L92.4437 122.111C91.0804 118.548 87.7428 116.088 83.7658 117.172C80.3717 118.114 77.4665 122.28 78.8392 125.871L85.7684 143.968C87.1317 147.531 90.4693 149.99 94.4463 148.907C97.8404 147.964 100.746 143.798 99.3729 140.207Z" fill="#2EA7E0"/>
<path d="M114.858 180.622L107.929 162.526C106.565 158.963 103.228 156.503 99.2507 157.587C95.8566 158.53 92.9514 162.696 94.3241 166.287L101.253 184.383C102.617 187.946 105.954 190.406 109.931 189.322C113.325 188.379 116.23 184.213 114.858 180.622Z" fill="#2EA7E0"/>
<path d="M135.062 140.207L128.133 122.111C126.77 118.548 123.432 116.088 119.455 117.172C116.061 118.114 113.156 122.28 114.529 125.871L121.458 143.968C122.821 147.531 126.159 149.99 130.136 148.907C133.53 147.964 136.435 143.798 135.062 140.207Z" fill="#2EA7E0"/>
<path d="M150.547 180.622L143.618 162.526C142.255 158.963 138.917 156.503 134.94 157.587C131.546 158.53 128.641 162.696 130.014 166.287L136.943 184.383C138.306 187.946 141.644 190.406 145.621 189.322C149.015 188.379 151.92 184.213 150.547 180.622Z" fill="#2EA7E0"/>
<path d="M170.752 140.207L163.823 122.111C162.459 118.548 159.122 116.088 155.145 117.172C151.751 118.114 148.846 122.28 150.218 125.871L157.147 143.968C158.511 147.531 161.848 149.99 165.825 148.907C169.219 147.964 172.124 143.798 170.752 140.207Z" fill="#2EA7E0"/>
<path d="M186.237 180.622L179.308 162.526C177.944 158.963 174.607 156.503 170.63 157.587C167.236 158.53 164.33 162.696 165.703 166.287L172.632 184.383C173.996 187.946 177.333 190.406 181.31 189.322C184.704 188.379 187.609 184.213 186.237 180.622Z" fill="#2EA7E0"/>
</svg>
