<svg width="230" height="190" viewBox="0 0 230 190" fill="none" xmlns="http://www.w3.org/2000/svg">
<path d="M179.573 137.521C190.482 137.524 201.004 133.476 209.098 126.161C217.191 118.845 222.279 108.784 223.375 97.9299C224.47 87.0754 221.495 76.2009 215.026 67.4159C208.558 58.6309 199.056 52.5616 188.366 50.3855C184.86 39.057 178.213 28.9553 169.197 21.2532C160.18 13.5511 149.163 8.56463 137.426 6.87275C125.689 5.18087 113.712 6.85298 102.887 11.6949C92.0624 16.5369 82.833 24.35 76.2705 34.2272C68.9925 31.8651 61.2888 31.109 53.6904 32.011C46.092 32.9131 38.7795 35.4518 32.2568 39.4523C25.7341 43.4529 20.1564 48.82 15.9079 55.184C11.6594 61.5479 8.84117 68.7574 7.64746 76.3154C6.45375 83.8735 6.91292 91.6006 8.99333 98.9641C11.0737 106.328 14.7259 113.153 19.6982 118.969C24.6705 124.785 30.8446 129.453 37.7952 132.653C44.7458 135.853 52.3075 137.508 59.9592 137.504" fill="white"/>
<path d="M179.573 143.899C191.877 143.769 203.718 139.19 212.909 131.008C222.099 122.826 228.017 111.594 229.57 99.3874C232.716 73.8745 215.112 49.6626 190.058 44.2284L194.515 48.6846C186.801 24.5408 166.306 5.47411 141.099 1.06037C127.731 -1.29195 113.967 0.28878 101.48 5.6105C88.9936 10.9322 78.3211 19.7659 70.7596 31.0381L77.9628 28.1041C51.2592 19.8634 21.5366 31.3103 8.00619 55.9728C-4.88637 79.4873 -0.17497 109.865 19.6231 128.081C30.6412 138.17 45.0118 143.809 59.9506 143.908C68.1658 144.001 68.1658 131.245 59.9506 131.151C39.115 130.922 20.5246 117.034 15.0138 96.7936C12.3929 86.8579 13.1031 76.3368 17.0356 66.8435C20.9681 57.3502 27.9058 49.4088 36.7848 44.2369C48.3337 37.578 61.9066 36.5064 74.5696 40.4184C77.41 41.2688 80.208 39.7891 81.7728 37.4844C94.2231 19.1661 116.998 9.30107 138.879 13.5873C148.886 15.5468 158.183 20.1537 165.804 26.9279C173.425 33.7021 179.09 42.3958 182.209 52.1034C182.505 53.167 183.071 54.136 183.852 54.9167C184.633 55.6974 185.602 56.2633 186.665 56.5596C205.825 60.7183 219.407 78.4583 216.949 98.2309C214.619 117.017 198.24 130.896 179.53 131.143C171.332 131.253 171.306 144.01 179.53 143.899H179.573Z" fill="#231815"/>
<path d="M162.751 154.716L158.805 152.437L161.475 150.881C168.568 146.756 162.156 135.726 155.038 139.825L147.851 144.001C147.29 144.324 146.661 144.656 145.997 145.005L143.446 143.533V131.279L145.997 129.799C146.644 130.139 147.282 130.471 147.851 130.802L155.038 134.978C162.147 139.111 168.576 128.089 161.475 123.922L158.805 122.366L161.356 120.903L162.947 119.985C168.687 116.668 165.6 108.836 160.438 108.079C159.997 108.026 159.552 108.026 159.111 108.079C158.19 108.173 157.3 108.463 156.5 108.929L152.444 111.276C152.444 110.256 152.444 109.235 152.444 108.215C152.444 108.019 152.444 107.824 152.444 107.636C151.908 100.918 142.417 100.263 140.189 105.698C139.861 106.507 139.699 107.375 139.713 108.249V116.558C139.713 117.187 139.713 117.893 139.653 118.616V118.701L136.388 120.589L131.123 117.553C130.273 117.034 129.218 116.353 128.138 115.648C127.594 115.29 127.024 114.925 126.438 114.576V111.089C127.084 110.681 127.713 110.281 128.291 109.95L135.495 105.817C135.937 105.565 136.351 105.265 136.728 104.924C141.754 100.34 135.724 90.9765 129.074 94.8035L126.446 96.3087V91.861C126.446 83.6543 113.69 83.6373 113.69 91.861V96.3853L111.053 94.846C104.913 91.3252 99.2917 99.0046 102.404 103.818C102.965 104.67 103.724 105.373 104.615 105.868L111.819 110.001C112.397 110.332 113.026 110.732 113.673 111.14V114.755C112.167 115.69 110.739 116.694 109.531 117.391L103.824 120.691L100.474 118.752C100.474 118.003 100.414 117.28 100.414 116.609V108.3C100.414 100.093 87.6578 100.076 87.6578 108.3C87.6578 109.32 87.6578 110.341 87.6578 111.361L83.6012 109.014C76.4746 104.907 70.0453 115.92 77.1634 120.07L81.2795 122.451L78.6092 124.007C71.5165 128.132 77.9288 139.162 85.0469 135.063L92.2331 130.887C92.7944 130.564 93.4237 130.232 94.087 129.884L96.8084 131.457V143.559L94.087 145.132C93.4407 144.792 92.8029 144.46 92.2331 144.129L85.0469 139.953C77.9373 135.82 71.508 146.841 78.6092 151.009L81.2795 152.565L77.3335 154.844C70.2239 158.952 76.6446 169.973 83.7713 165.9L87.6663 163.655C87.6663 164.675 87.6663 165.696 87.6663 166.716C87.6663 174.923 100.423 174.94 100.423 166.716V158.407C100.423 157.752 100.423 157.021 100.482 156.264L102.489 155.108L109.182 158.969C110.483 159.717 112.04 160.831 113.69 161.843V163.876C113.043 164.284 112.414 164.684 111.836 165.015L104.632 169.148C97.5143 173.23 103.935 184.26 111.07 180.204L113.698 178.699V183.419C113.698 191.625 126.455 191.642 126.455 183.419V178.699L129.082 180.204C136.218 184.295 142.689 173.281 135.52 169.148L128.317 165.015C127.739 164.684 127.109 164.284 126.463 163.876V161.911C128.036 160.942 129.525 159.887 130.775 159.164L137.74 155.142L139.67 156.256C139.67 157.004 139.73 157.727 139.73 158.399V166.708C139.73 174.914 152.486 174.931 152.486 166.708C152.486 165.687 152.486 164.667 152.486 163.646L156.381 165.891C163.431 169.846 169.861 158.824 162.751 154.716ZM120.127 150.396L120.042 150.345L115.229 147.564L113.664 146.663L109.565 144.299V132.103L110.194 131.738L113.664 129.731L116.572 128.03L120.042 126.023L120.127 125.972L123.597 127.979L126.421 129.612L129.975 131.661L130.69 132.069V144.265L126.438 146.731L124.958 147.581L120.127 150.396Z" fill="#2EA7E0"/>
</svg>
