<svg width="191" height="190" viewBox="0 0 191 190" fill="none" xmlns="http://www.w3.org/2000/svg">
<path d="M95.5859 145.711C123.709 145.711 146.507 122.913 146.507 94.79C146.507 66.6669 123.709 43.8687 95.5859 43.8687C67.4628 43.8687 44.6646 66.6669 44.6646 94.79C44.6646 122.913 67.4628 145.711 95.5859 145.711Z" fill="#F8B62D"/>
<path d="M142.004 94.7901C141.847 113.964 129.832 131.834 111.613 138.379C102.53 141.631 92.6672 142.01 83.3621 139.464C74.0569 136.918 65.7604 131.571 59.5987 124.148C47.2767 109.238 45.8595 87.4341 55.7676 70.9087C65.6756 54.3832 85.6478 45.3579 104.647 49.2431C115.138 51.4306 124.564 57.1416 131.359 65.4273C138.155 73.713 141.911 84.0744 142.004 94.7901C142.052 100.585 151.059 100.597 151.011 94.7901C150.912 83.4102 147.356 72.3292 140.814 63.0172C134.272 53.7051 125.053 46.6018 114.381 42.6497C92.7156 34.6692 67.2309 41.737 52.7291 59.6675C38.2273 77.5981 36.0415 103.293 47.9852 123.217C59.995 143.267 83.7563 153.614 106.641 149.104C132.312 144.03 150.831 120.707 151.011 94.7901C151.059 88.9954 142.052 88.9894 142.004 94.7901Z" fill="#231815"/>
<path d="M100.09 23.5661V4.35053C100.09 -1.44417 91.0822 -1.45618 91.0822 4.35053V23.5661C91.0822 29.3608 100.09 29.3729 100.09 23.5661Z" fill="#231815"/>
<path d="M63.8621 30.832L54.2543 14.2045C51.354 9.1844 43.5716 13.7181 46.448 18.7502L56.0558 35.3777C58.9561 40.3977 66.7385 35.8641 63.8621 30.832Z" fill="#231815"/>
<path d="M36.1736 55.2898L19.5461 45.682C14.514 42.7757 9.97435 50.558 15.0004 53.4884L31.6279 63.0962C36.66 66.0025 41.1997 58.2202 36.1736 55.2898Z" fill="#231815"/>
<path d="M24.362 90.2864H5.14643C-0.648273 90.2864 -0.660283 99.2937 5.14643 99.2937H24.362C30.1567 99.2937 30.1688 90.2864 24.362 90.2864Z" fill="#231815"/>
<path d="M31.6279 126.514L15.0004 136.121C9.98036 139.022 14.514 146.804 19.5461 143.928L36.1736 134.32C41.1937 131.42 36.66 123.637 31.6279 126.514Z" fill="#231815"/>
<path d="M56.0858 154.202L46.478 170.83C43.5716 175.862 51.354 180.402 54.2843 175.375L63.8921 158.748C66.7985 153.716 59.0162 149.176 56.0858 154.202Z" fill="#231815"/>
<path d="M91.0822 166.014V185.229C91.0822 191.024 100.09 191.036 100.09 185.229V166.014C100.09 160.219 91.0822 160.207 91.0822 166.014Z" fill="#231815"/>
<path d="M127.31 158.748L136.917 175.375C139.818 180.396 147.6 175.862 144.724 170.83L135.116 154.202C132.216 149.182 124.433 153.716 127.31 158.748Z" fill="#231815"/>
<path d="M154.998 134.29L171.626 143.898C176.658 146.804 181.198 139.022 176.171 136.092L159.544 126.484C154.512 123.577 149.972 131.36 154.998 134.29Z" fill="#231815"/>
<path d="M166.81 99.2937H186.025C191.82 99.2937 191.832 90.2864 186.025 90.2864H166.81C161.015 90.2864 161.003 99.2937 166.81 99.2937Z" fill="#231815"/>
<path d="M159.544 63.0662L176.171 53.4584C181.191 50.5581 176.658 42.7757 171.626 45.6521L154.998 55.2599C149.978 58.1602 154.512 65.9425 159.544 63.0662Z" fill="#231815"/>
<path d="M135.086 35.3776L144.694 18.7501C147.6 13.7181 139.818 9.17836 136.887 14.2044L127.28 30.832C124.373 35.864 132.156 40.4037 135.086 35.3776Z" fill="#231815"/>
</svg>
