<svg width="211" height="192" viewBox="0 0 211 192" fill="none" xmlns="http://www.w3.org/2000/svg">
<path d="M138.701 10.7367C138.261 11.5817 138.034 12.5219 138.04 13.4752C138.04 12.4531 138.001 11.4466 137.946 10.4402L138.701 10.7367Z" fill="#231815"/>
<path d="M16.5678 40.197C17.413 42.0633 18.3507 43.886 19.3774 45.6584C16.5307 48.7466 14.0928 52.1896 12.1239 55.9024C11.3457 54.7789 10.6141 53.6398 9.89809 52.4617C9.45448 51.7284 9.03422 50.9872 8.61395 50.2382C10.8495 46.5803 13.5204 43.2085 16.5678 40.197Z" fill="#231815"/>
<path d="M137.254 4.00367C137.586 6.1258 137.817 8.27915 137.946 10.4637C126.629 6.17954 114.25 5.58987 102.578 8.77887C90.9059 11.9679 80.5375 18.7725 72.9532 28.221L71.3967 26.7933C70.1126 26.3954 68.8206 26.0599 67.5054 25.7634C74.6548 16.5554 84.1732 9.47553 95.0366 5.28545C105.9 1.09537 117.697 -0.0463997 129.16 1.98295C131.902 2.46237 134.607 3.13766 137.254 4.00367V4.00367Z" fill="#231815"/>
<path d="M178.074 45.6896L173.996 41.6013C174.976 41.812 175.941 42.0694 176.899 42.3425C177.311 43.4504 177.716 44.5583 178.074 45.6896Z" fill="#231815"/>
<path d="M9.91366 52.4775C10.6297 53.6556 11.3768 54.8181 12.1395 55.9182C8.2334 63.3168 6.30185 71.6022 6.53236 79.97C6.76287 88.3378 9.14762 96.5037 13.4551 103.675C17.7625 110.846 23.8464 116.779 31.116 120.898C38.3855 125.017 46.5939 127.181 54.9442 127.181H60.5788C60.5788 130.131 58.7266 133.08 54.9442 133.033C41.2723 132.947 28.1199 127.772 18.0388 118.513C-0.0870741 101.802 -4.39868 73.9407 7.40763 52.3605C7.79677 51.6505 8.1859 50.9405 8.62173 50.2539C9.03421 51.0029 9.45448 51.7441 9.91366 52.4775Z" fill="#231815"/>
<path d="M137.946 10.4635C138.001 11.4699 138.032 12.4764 138.04 13.4984C138.047 14.5205 137.985 15.722 137.923 16.8299C134.469 15.3229 130.863 14.1954 127.167 13.4672C107.135 9.56625 86.3005 18.5853 74.8989 35.3908C73.4669 37.5051 70.9064 38.8783 68.307 38.0825C56.7186 34.4936 44.2974 35.4766 33.7286 41.5856C29.5615 44 25.837 47.111 22.7161 50.7841C21.5175 49.1223 20.3813 47.4215 19.3773 45.6738C25.6592 38.8732 33.7477 34.0123 42.6913 31.6627C51.6349 29.313 61.0619 29.5725 69.8635 32.4104C70.8285 30.9593 71.8662 29.5549 72.9766 28.1974C80.5619 18.7456 90.933 11.9389 102.608 8.74979C114.283 5.56067 126.665 6.15226 137.985 10.4401L137.946 10.4635Z" fill="#231815"/>
<path d="M138.701 10.7368C142.351 12.1972 145.843 14.0271 149.122 16.1982C147.846 18.726 144.764 19.6233 142.165 18.9133C141.433 18.5076 140.678 18.1331 139.923 17.7586C139.316 17.2326 138.833 16.5787 138.507 15.8437C138.182 15.1086 138.022 14.3106 138.04 13.5065C138.029 12.5427 138.256 11.5912 138.701 10.7368V10.7368Z" fill="#231815"/>
<path d="M137.254 4.00366C141.557 5.40585 145.689 7.28749 149.574 9.61329C149.644 10.768 149.698 11.9539 149.706 13.093C149.402 6.98403 141.145 6.21163 138.701 10.7524L137.923 10.4559C137.814 8.27655 137.591 6.1258 137.254 4.00366Z" fill="#231815"/>
<path d="M72.6731 127.181H108.03C108.016 128.153 107.788 129.11 107.36 129.982L95.0249 155.073C104.224 145.763 113.428 136.458 122.638 127.158H139.106C118.995 147.495 98.8825 167.83 78.7669 188.162C78.2411 189.067 77.4358 189.775 76.4725 190.181C75.5093 190.586 74.4406 190.666 73.428 190.409C69.6923 189.784 66.6726 185.244 69.0853 181.514L92.9858 132.853H78.4789C76.9715 132.831 75.5299 132.23 74.4502 131.176C73.3704 130.121 72.7346 128.691 72.6731 127.181V127.181Z" fill="#231815"/>
<path d="M73.4358 124.076L81.8566 109.681C85.7168 103.065 89.5796 96.4544 93.445 89.8488C94.2233 88.538 94.8926 87.1883 95.6475 85.9478C97.204 83.3809 99.1108 81.3134 102.714 81.1808C104.483 81.1287 106.253 81.0871 108.022 81.0559C118.139 80.8921 128.257 81.1808 138.297 81.1808C142.515 81.1808 145.846 86.2287 143.34 89.9892L133.954 104.033H147.963C153.037 104.033 155.644 110.43 152.087 114.019L142.803 123.382C141.557 124.638 140.32 125.894 139.075 127.142H122.638L133.954 115.705H123.058C118.84 115.705 115.501 110.657 118.015 106.896L127.401 92.8525H105.197L88.6664 121.135H102.325C103.1 121.13 103.868 121.285 104.581 121.589C105.294 121.893 105.938 122.34 106.472 122.903C107.006 123.466 107.42 124.132 107.688 124.861C107.956 125.59 108.072 126.367 108.03 127.142H72.6731C72.6303 126.068 72.8949 125.004 73.4358 124.076V124.076Z" fill="#231815"/>
<path d="M142.164 18.9055C144.764 19.6155 147.846 18.7183 149.122 16.1904C149.286 16.3075 149.457 16.4167 149.628 16.5259C149.519 18.8275 149.301 21.1135 148.99 23.376C146.836 21.708 144.554 20.2132 142.164 18.9055V18.9055Z" fill="#231815"/>
<path d="M71.3967 26.7932L72.9533 28.221C71.8689 29.5785 70.8312 30.9829 69.8402 32.434C68.0832 31.8671 66.2955 31.4008 64.4857 31.0375L64.797 29.4771L71.3967 26.7932Z" fill="#231815"/>
<path d="M138.04 13.4988C138.022 14.3028 138.182 15.1009 138.507 15.8359C138.833 16.571 139.316 17.2249 139.923 17.7509C139.262 17.431 138.592 17.1189 137.923 16.8302C137.985 15.7223 138.032 14.6379 138.04 13.4988Z" fill="#231815"/>
<path d="M6.49704 78.6139C6.48762 70.6955 8.41993 62.8962 12.1239 55.9023C13.3847 57.7514 14.7233 59.5303 16.1242 61.2389C12.078 70.2037 11.253 80.2964 13.7894 89.8019C18.8248 108.371 35.8377 121.103 54.913 121.314C58.6409 121.361 60.5165 124.263 60.5477 127.166H54.913C42.0709 127.161 29.7561 122.044 20.6768 112.94C11.5975 103.835 6.49704 91.4879 6.49704 78.6139V78.6139Z" fill="#231815"/>
<path d="M67.5053 25.7634C68.805 26.0599 70.097 26.3954 71.3967 26.7933L64.8203 29.4616C65.692 28.1977 66.587 26.9649 67.5053 25.7634Z" fill="#231815"/>
<path d="M147.963 104.041H133.954L143.34 89.9971C145.846 86.2366 142.515 81.1887 138.297 81.1887C128.226 81.1887 118.101 80.9 108.022 81.0639C106.248 81.0951 104.478 81.1367 102.714 81.1887C99.1108 81.3213 97.2196 83.3889 95.6475 85.9557C94.8693 87.1884 94.2078 88.5382 93.445 89.8567C89.5797 96.4624 85.7169 103.073 81.8567 109.689L73.4358 124.084C72.8793 125.026 72.6088 126.111 72.6575 127.205H60.571C60.571 124.302 58.6643 121.4 54.9364 121.353C35.8611 121.143 18.8482 108.41 13.8128 89.8411C11.2764 80.3356 12.1014 70.2428 16.1476 61.278C17.833 57.4893 20.053 53.9632 22.7395 50.8078C25.8604 47.1347 29.5849 44.0236 33.752 41.6093C44.3208 35.5003 56.742 34.5172 68.3304 38.1062C70.9298 38.8864 73.4903 37.5288 74.9223 35.4145C86.3239 18.609 107.158 9.55871 127.191 13.4909C130.887 14.2191 134.493 15.3465 137.946 16.8536C138.616 17.1422 139.285 17.4543 139.946 17.7742C140.608 18.0941 141.456 18.5544 142.188 18.9289C153.918 25.3616 162.739 36.0594 166.836 48.8183C167.105 49.7947 167.623 50.6845 168.337 51.4009C169.052 52.1174 169.94 52.6361 170.914 52.9065C188.448 56.7217 200.877 72.9966 198.628 91.1362C196.495 108.379 181.506 121.104 164.384 121.33C160.664 121.385 158.788 124.287 158.749 127.181H139.106C140.351 125.933 141.589 124.677 142.834 123.421L152.119 114.058C155.644 110.438 153.037 104.041 147.963 104.041Z" fill="#DCDDDD"/>
<path d="M127.37 92.8916L117.984 106.935C115.47 110.696 118.809 115.744 123.027 115.744H133.923L122.607 127.181H108.03C108.072 126.406 107.956 125.629 107.688 124.9C107.42 124.171 107.006 123.505 106.472 122.942C105.938 122.379 105.294 121.932 104.581 121.628C103.868 121.324 103.1 121.169 102.325 121.174H88.6664L105.197 92.8916H127.37Z" fill="#FAEE00"/>
<path d="M19.3773 45.6738C20.3969 47.4215 21.5176 49.1223 22.7161 50.7841C20.0352 53.9405 17.8204 57.4666 16.1398 61.2544C14.7389 59.5458 13.4003 57.7669 12.1395 55.9178C14.1035 52.2059 16.5361 48.7629 19.3773 45.6738V45.6738Z" fill="#231815"/>
<path d="M149.122 16.1981C149.468 15.4971 149.667 14.7323 149.706 13.9512C149.706 14.8172 149.667 15.6754 149.628 16.5336C149.457 16.4166 149.286 16.3074 149.122 16.1981Z" fill="#231815"/>
<path d="M164.392 127.181C174.376 127.187 184.007 123.474 191.415 116.763C198.823 110.053 203.481 100.823 204.484 90.8639C205.488 80.9053 202.766 70.928 196.846 62.8677C190.926 54.8074 182.231 49.2388 172.447 47.2422C168.548 34.6989 160.499 23.8636 149.628 16.5258C149.667 15.6676 149.698 14.8094 149.706 13.9433V13.8575C149.706 13.7483 149.706 13.6391 149.706 13.5298V13.4752C149.706 13.3348 149.706 13.2022 149.706 13.0695C149.706 11.8992 149.644 10.7289 149.574 9.58984C162.082 17.1227 171.705 28.6486 176.899 42.3191C175.941 42.0461 174.976 41.7886 173.996 41.578L178.074 45.6662C177.716 44.5349 177.295 43.427 176.899 42.3191C198.239 48.4671 212.909 69.7431 210.154 92.1738C208.733 103.374 203.316 113.679 194.904 121.186C186.492 128.692 175.653 132.892 164.392 133.009C160.602 133.064 158.726 130.115 158.757 127.158L164.392 127.181Z" fill="#231815"/>
<path d="M19.3774 45.674C18.3507 43.9017 17.413 42.0789 16.5679 40.2127C23.1757 33.7261 31.3009 29.0046 40.1997 26.4803C49.0986 23.956 58.487 23.7095 67.5054 25.7634C66.5611 26.9649 65.6558 28.2054 64.7893 29.4849L64.478 31.0453C56.3335 29.3956 47.9025 29.8755 39.9967 32.439C32.0909 35.0025 24.9765 39.5631 19.3385 45.6818L19.3774 45.674Z" fill="#231815"/>
<path d="M138.701 10.7367C141.114 6.18809 149.402 6.96049 149.706 13.0773C149.706 13.2099 149.706 13.3425 149.706 13.483V13.5376C149.706 13.6468 149.706 13.756 149.706 13.8652V13.9277C149.667 14.7088 149.468 15.4736 149.122 16.1746C145.842 14.0117 142.35 12.1896 138.701 10.7367V10.7367Z" fill="#231815"/>
<path d="M204.667 86.8137C204.667 92.1155 203.625 97.3653 201.601 102.263C199.577 107.162 196.61 111.612 192.87 115.361C189.13 119.109 184.69 122.082 179.804 124.111C174.918 126.139 169.68 127.182 164.392 127.181H158.757C158.757 124.287 160.672 121.384 164.392 121.33C181.514 121.103 196.472 108.378 198.636 91.136C200.885 72.973 188.456 56.6981 170.922 52.9063C169.947 52.6359 169.06 52.1172 168.345 51.4007C167.631 50.6843 167.113 49.7945 166.843 48.8181C163.621 38.7246 157.403 29.8569 149.021 23.3992C149.332 21.1366 149.55 18.8507 149.659 16.5491C160.53 23.8869 168.58 34.7222 172.478 47.2655C181.565 49.1354 189.73 54.0912 195.594 61.2964C201.458 68.5015 204.663 77.5145 204.667 86.8137V86.8137Z" fill="#231815"/>
<path d="M122.638 127.181C113.434 136.487 104.229 145.784 95.025 155.073L107.36 129.959C107.788 129.086 108.016 128.13 108.03 127.158L122.638 127.181Z" fill="#FAEE00"/>
<path d="M8.61392 50.2539C8.19366 50.9405 7.78896 51.6505 7.39982 52.3605C-4.40649 73.9407 -0.094891 101.802 18.0309 118.513C28.1121 127.772 41.2645 132.947 54.9364 133.033C58.7188 133.08 60.5944 130.131 60.571 127.181" stroke="#231815" stroke-miterlimit="10"/>
<path d="M67.5054 25.7633C58.4835 23.7019 49.0899 23.9431 40.1851 26.4648C31.2803 28.9865 23.1492 33.7081 16.5367 40.197" stroke="#231815" stroke-miterlimit="10"/>
<path d="M137.254 4.00363C134.617 3.13906 131.923 2.46379 129.191 1.98292C117.724 -0.0524251 105.92 1.08636 95.0504 5.27667C84.181 9.46698 74.6575 16.5501 67.5054 25.7634" stroke="#231815" stroke-miterlimit="10"/>
<path d="M158.757 127.181C158.757 130.138 160.602 133.087 164.392 133.033C175.653 132.916 186.492 128.716 194.904 121.209C203.316 113.703 208.733 103.397 210.154 92.1972C212.909 69.7665 198.239 48.5061 176.899 42.3425" stroke="#231815" stroke-miterlimit="10"/>
<path d="M176.899 42.3426C171.705 28.6721 162.082 17.1461 149.574 9.61328" stroke="#231815" stroke-miterlimit="10"/>
<path d="M176.899 42.3425C177.311 43.4504 177.677 44.5583 178.074 45.6896L173.996 41.6013C174.976 41.812 175.941 42.0694 176.899 42.3425Z" stroke="#231815" stroke-miterlimit="10"/>
<path d="M71.3967 26.7933C70.1125 26.3954 68.8206 26.0599 67.5053 25.7634C66.561 26.9649 65.6557 28.2055 64.7892 29.485L71.3967 26.7933Z" stroke="#231815" stroke-miterlimit="10"/>
<path d="M149.706 13.0773C149.706 11.907 149.644 10.7367 149.574 9.59765C145.689 7.27185 141.557 5.39022 137.254 3.98804C137.586 6.11017 137.817 8.26352 137.946 10.4481" stroke="#231815" stroke-miterlimit="10"/>
<path d="M138.701 10.7367C141.114 6.18809 149.402 6.96049 149.706 13.0773" stroke="#231815" stroke-miterlimit="10"/>
<path d="M19.3774 45.674C18.3507 43.9017 17.413 42.0789 16.5678 40.2126C13.5194 43.229 10.8484 46.6061 8.61395 50.2694C9.03422 51.0496 9.45448 51.7596 9.89809 52.493C10.6141 53.6711 11.3612 54.8335 12.1239 55.9336" stroke="#231815" stroke-miterlimit="10"/>
<path d="M149.706 13.0771C149.706 13.2098 149.706 13.3424 149.706 13.4829V13.5375" stroke="#231815" stroke-miterlimit="10"/>
<path d="M149.706 13.8583C149.706 13.7488 149.706 13.6393 149.706 13.5298" stroke="#231815" stroke-miterlimit="10"/>
<path d="M149.706 13.8574V13.9198" stroke="#231815" stroke-miterlimit="10"/>
<path d="M149.628 16.5258C149.667 15.6676 149.698 14.8094 149.706 13.9434" stroke="#231815" stroke-miterlimit="10"/>
<path d="M148.99 23.376C157.372 29.8337 163.59 38.7013 166.812 48.7948C167.082 49.7713 167.599 50.661 168.314 51.3775C169.029 52.0939 169.916 52.6126 170.89 52.8831C188.425 56.6982 200.854 72.9732 198.604 91.1128C196.472 108.355 181.483 121.08 164.361 121.306C160.641 121.361 158.765 124.263 158.726 127.158H164.361C174.345 127.163 183.976 123.45 191.384 116.74C198.792 110.029 203.45 100.799 204.453 90.8405C205.457 80.8819 202.735 70.9046 196.815 62.8443C190.895 54.784 182.2 49.2154 172.416 47.2188C168.517 34.6755 160.468 23.8403 149.597 16.5024" stroke="#231815" stroke-miterlimit="10"/>
<path d="M137.946 10.4636C126.629 6.17946 114.25 5.58979 102.578 8.77879C90.906 11.9678 80.5375 18.7724 72.9533 28.2209C71.8689 29.5785 70.8312 30.9828 69.8402 32.434C68.0833 31.8671 66.2955 31.4008 64.4857 31.0375C56.3413 29.3877 47.9103 29.8677 40.0044 32.4311C32.0986 34.9946 24.9842 39.5552 19.3463 45.674" stroke="#231815" stroke-miterlimit="10"/>
<path d="M22.7161 50.7843C25.837 47.1112 29.5615 44.0002 33.7286 41.5858C44.2975 35.4769 56.7186 34.4938 68.307 38.0827C70.9064 38.8629 73.4669 37.5054 74.8989 35.391C86.3005 18.5856 107.135 9.53527 127.167 13.4675C130.863 14.1956 134.469 15.3231 137.923 16.8301" stroke="#231815" stroke-miterlimit="10"/>
<path d="M12.1239 55.918C8.21785 63.3166 6.2863 71.602 6.51681 79.9698C6.74732 88.3376 9.13207 96.5035 13.4395 103.675C17.747 110.846 23.8308 116.779 31.1004 120.898C38.37 125.016 46.5784 127.181 54.9286 127.181H60.5633C60.5633 124.279 58.6565 121.377 54.9286 121.33C35.8533 121.119 18.8404 108.386 13.805 89.8176C11.2686 80.312 12.0936 70.2193 16.1398 61.2545" stroke="#231815" stroke-miterlimit="10"/>
<path d="M149.122 16.1982C145.843 14.0272 142.351 12.1972 138.701 10.7368" stroke="#231815" stroke-miterlimit="10"/>
<path d="M139.923 17.7585C140.701 18.1252 141.433 18.5387 142.165 18.9132" stroke="#231815" stroke-miterlimit="10"/>
<path d="M19.3773 45.6738C16.5307 48.762 14.0928 52.205 12.1239 55.9178C13.3847 57.7669 14.7233 59.5458 16.1242 61.2544C17.8097 57.4657 20.0297 53.9395 22.7161 50.7841C21.5176 49.1223 20.3969 47.4059 19.3773 45.6738Z" stroke="#231815" stroke-miterlimit="10"/>
<path d="M138.701 10.7367L137.923 10.4402C137.977 11.4466 138.009 12.4531 138.016 13.4752C138.018 12.5199 138.253 11.5797 138.701 10.7367V10.7367Z" stroke="#231815" stroke-miterlimit="10"/>
<path d="M138.04 13.4988C138.04 14.6067 137.985 15.7223 137.923 16.8302C138.592 17.1189 139.262 17.431 139.923 17.7509C139.316 17.2249 138.833 16.571 138.507 15.8359C138.182 15.1009 138.022 14.3028 138.04 13.4988V13.4988Z" stroke="#231815" stroke-miterlimit="10"/>
<path d="M142.164 18.9055C144.554 20.2132 146.836 21.708 148.99 23.376C149.301 21.1135 149.519 18.8275 149.628 16.5259C149.457 16.4167 149.286 16.3075 149.122 16.1904C147.846 18.7183 144.764 19.6155 142.164 18.9055Z" stroke="#231815" stroke-miterlimit="10"/>
<path d="M139.106 127.181C140.351 125.933 141.589 124.677 142.834 123.421L152.119 114.058C155.675 110.469 153.068 104.072 147.994 104.072H133.985L143.371 90.0283C145.877 86.2677 142.546 81.2198 138.328 81.2198C128.257 81.2198 118.132 80.9312 108.053 81.095C106.279 81.1262 104.509 81.1678 102.745 81.2198C99.142 81.3525 97.2508 83.42 95.6787 85.9868C94.9004 87.2196 94.2389 88.5693 93.4762 89.8878C89.6108 96.4935 85.748 103.104 81.8878 109.72L73.4669 124.115C72.9104 125.057 72.64 126.142 72.6887 127.236C72.7443 128.75 73.3777 130.185 74.458 131.245C75.5383 132.305 76.9832 132.908 78.4945 132.931H92.9703L69.0619 181.538C66.6493 185.267 69.669 189.808 73.4047 190.432C74.4173 190.69 75.486 190.61 76.4492 190.204C77.4124 189.799 78.2178 189.09 78.7436 188.185C98.8488 167.853 118.97 147.518 139.106 127.181Z" stroke="#231815" stroke-miterlimit="10"/>
<path d="M122.638 127.181C113.433 136.486 104.229 145.784 95.0249 155.073L107.36 129.959C107.788 129.086 108.016 128.13 108.03 127.158C108.072 126.382 107.956 125.606 107.688 124.877C107.42 124.148 107.006 123.481 106.472 122.919C105.938 122.356 105.294 121.909 104.581 121.605C103.868 121.301 103.1 121.146 102.325 121.15H88.6664L105.197 92.8682H127.37L117.984 106.912C115.47 110.672 118.809 115.72 123.027 115.72H133.923L122.638 127.181Z" stroke="#231815" stroke-miterlimit="10"/>
</svg>
